<?xml version="1.0" encoding="utf-8"?>
<!-- Generator: Adobe Illustrator 17.0.0, SVG Export Plug-In . SVG Version: 6.00 Build 0)  -->
<!DOCTYPE svg PUBLIC "-//W3C//DTD SVG 1.1//EN" "http://www.w3.org/Graphics/SVG/1.1/DTD/svg11.dtd">
<svg version="1.1" id="Capa_1" xmlns="http://www.w3.org/2000/svg" xmlns:xlink="http://www.w3.org/1999/xlink" x="0px" y="0px"
	 width="1100.112px" height="180px" viewBox="0 0 1100.112 180" enable-background="new 0 0 1100.112 180" xml:space="preserve">
<rect fill="#FFFFFF" width="1100.112" height="180"/>
<path fill="#00B140" d="M147.284,27.558c-0.172,1.613-1.948,3.146,0.074,4.874c1.004,0.858-0.603,1.468-0.808,2.272
	c-0.133,0.157-0.266,0.315-0.399,0.473c-1.955,0.85-2.477-0.623-3.109-1.917c-2.514-2.613-6.034-4.659-5.162-9.177
	c1.988-0.13,3.381,1.468,5.213,1.791c0.221,0.913-0.421,3.189,1.715,1.069c0.45-0.446,1.002-0.789,1.507-1.18
	C147.068,26.131,147.164,26.851,147.284,27.558z"/>
<path fill="#00B140" d="M142.175,42.73c2.518-2.304,0.147-4.72,0.163-7.082c1.128-1.07,2.67,0.128,3.842-0.701
	c0.124-0.079,0.248-0.16,0.37-0.242c1.15,1.396,1.134,2.728,0.02,4.203c-0.944,1.249-1.741,2.661-0.214,4.11
	c0.537,0.676,0.456,1.318-0.102,1.938c-1.404,0.817-2.776,0.822-4.109-0.16C141.726,44.102,141.78,43.413,142.175,42.73z"/>
<path fill="#00B140" d="M143.094,25.875c-2.116,0.508-3.434-1.31-5.212-1.79c-0.826-1.032,0.126-1.871,0.271-3.649
	C139.349,23.323,141.658,24.131,143.094,25.875z"/>
<path fill="#00B140" d="M147.284,27.558c-0.777-0.353-0.864-1.078-0.968-1.794c0.4-1.016,1.666-0.958,1.868-0.566
	C148.607,26.025,148.085,26.949,147.284,27.558z"/>
<path fill="#00B140" d="M146.18,34.947c-1.091,1.276-2.558,0.488-3.842,0.701c0.235-0.796,0.469-1.592,0.704-2.388
	C144,33.987,144.742,35.115,146.18,34.947z"/>
<path fill="#00B140" d="M147.848,46.42c-2.08-1.489-4.147-1.758-6.191,0.069c-1.344-0.039-1.688-0.963-1.83-2.067
	c0.695-0.029,1.391-0.058,2.088-0.088c1.644,0.003,3.288,0.007,4.931,0.011c0.658,0.041,1.315,0.084,1.973,0.126
	c0.545,0.631,0.545,1.261-0.003,1.891C148.495,46.406,148.173,46.425,147.848,46.42z"/>
<g>
	<g>
		<rect x="15.475" y="77.837" fill="#FFFFFF" width="30.802" height="8.53"/>
		<path fill="#04A8EB" d="M45.239,78.875v6.455H16.512v-6.455H45.239 M47.314,76.8H14.437v10.606h32.877V76.8L47.314,76.8z"/>
	</g>
	<g>
		<rect x="18.715" y="71.238" fill="#FFFFFF" width="25.264" height="6.527"/>
		<path fill="#04A8EB" d="M42.941,72.275v4.452H19.753v-4.452H42.941 M45.016,70.2H17.678v8.602h27.339V70.2L45.016,70.2z"/>
	</g>
	<path fill="#FFFFFF" stroke="#04A8EB" stroke-width="2.1211" stroke-miterlimit="10" d="M19.328,71.144h22.154
		c0,0-5.538-7.188-12.844-7.188S19.328,71.144,19.328,71.144z"/>
	<g>
		<rect x="13.53" y="86.498" fill="#FFFFFF" width="34.868" height="84.36"/>
		<path fill="#04A8EB" d="M47.36,87.536v82.285H14.568V87.536H47.36 M49.435,85.461H12.493v86.435h36.943V85.461L49.435,85.461z"/>
	</g>
	<rect x="16.264" y="89.997" fill="#04A8EB" width="3.064" height="3.299"/>
	<rect x="20.155" y="89.997" fill="#04A8EB" width="3.064" height="3.299"/>
	<rect x="25.107" y="89.997" fill="#04A8EB" width="3.064" height="3.299"/>
	<rect x="25.107" y="96.011" fill="#04A8EB" width="3.064" height="3.299"/>
	<rect x="34.304" y="96.011" fill="#04A8EB" width="3.064" height="3.299"/>
	<rect x="42.794" y="96.011" fill="#04A8EB" width="3.064" height="3.299"/>
	<rect x="42.794" y="101.671" fill="#04A8EB" width="3.064" height="3.299"/>
	<rect x="42.794" y="107.331" fill="#04A8EB" width="3.064" height="3.299"/>
	<rect x="38.549" y="107.331" fill="#04A8EB" width="3.064" height="3.299"/>
	<rect x="20.155" y="107.331" fill="#04A8EB" width="3.064" height="3.299"/>
	<rect x="20.155" y="131.385" fill="#04A8EB" width="3.064" height="3.299"/>
	<rect x="20.155" y="138.106" fill="#04A8EB" width="3.064" height="3.299"/>
	<rect x="25.461" y="138.106" fill="#04A8EB" width="3.064" height="3.299"/>
	<rect x="15.91" y="138.106" fill="#04A8EB" width="3.064" height="3.299"/>
	<rect x="15.91" y="144.12" fill="#04A8EB" width="3.064" height="3.299"/>
	<rect x="15.91" y="149.78" fill="#04A8EB" width="3.064" height="3.299"/>
	<rect x="20.155" y="144.12" fill="#04A8EB" width="3.064" height="3.299"/>
	<rect x="16.264" y="101.671" fill="#04A8EB" width="3.064" height="3.299"/>
	<rect x="16.264" y="119.712" fill="#04A8EB" width="3.064" height="3.299"/>
	<rect x="28.291" y="119.712" fill="#04A8EB" width="3.064" height="3.299"/>
	<rect x="16.264" y="125.371" fill="#04A8EB" width="3.064" height="3.299"/>
	<rect x="28.291" y="125.371" fill="#04A8EB" width="3.064" height="3.299"/>
	<rect x="42.794" y="89.997" fill="#04A8EB" width="3.064" height="3.299"/>
	<rect x="38.549" y="89.997" fill="#04A8EB" width="3.064" height="3.299"/>
	<rect x="20.155" y="96.011" fill="#04A8EB" width="3.064" height="3.299"/>
	<rect x="16.264" y="96.011" fill="#04A8EB" width="3.064" height="3.299"/>
</g>
<g>
	<path fill="#FFFFFF" stroke="#821B8C" stroke-width="2.1211" stroke-miterlimit="10" d="M85.517,35.615v118.252H65.013V6.627
		C65.013,6.627,85.163,14.404,85.517,35.615z"/>
	<g>
		<rect x="53.524" y="25.186" fill="#FFFFFF" width="6.54" height="128.151"/>
		<path fill="#821B8C" d="M59.004,26.247v126.029h-4.419V26.247H59.004 M61.125,24.126h-8.661v130.271h8.661V24.126L61.125,24.126z"
			/>
	</g>
	<g>
		<rect x="60.245" y="25.186" fill="#FFFFFF" width="4.596" height="128.151"/>
		<path fill="#821B8C" d="M63.781,26.247v126.029h-2.475V26.247H63.781 M65.902,24.126h-6.717v130.271h6.717V24.126L65.902,24.126z"
			/>
	</g>
	<g>
		
			<line fill="none" stroke="#821BB8" stroke-width="2.1211" stroke-miterlimit="10" x1="68.548" y1="30.666" x2="84.456" y2="30.666"/>
		
			<line fill="none" stroke="#821BB8" stroke-width="2.1211" stroke-miterlimit="10" x1="72.967" y1="35.792" x2="85.517" y2="35.792"/>
		
			<line fill="none" stroke="#821BB8" stroke-width="2.1211" stroke-miterlimit="10" x1="68.548" y1="40.924" x2="84.456" y2="40.924"/>
		
			<line fill="none" stroke="#821BB8" stroke-width="2.1211" stroke-miterlimit="10" x1="72.967" y1="46.05" x2="85.517" y2="46.05"/>
		
			<line fill="none" stroke="#821BB8" stroke-width="2.1211" stroke-miterlimit="10" x1="68.548" y1="51.183" x2="84.456" y2="51.183"/>
		
			<line fill="none" stroke="#821BB8" stroke-width="2.1211" stroke-miterlimit="10" x1="72.967" y1="56.309" x2="85.517" y2="56.309"/>
		
			<line fill="none" stroke="#821BB8" stroke-width="2.1211" stroke-miterlimit="10" x1="68.548" y1="61.441" x2="84.456" y2="61.441"/>
		
			<line fill="none" stroke="#821BB8" stroke-width="2.1211" stroke-miterlimit="10" x1="72.967" y1="66.567" x2="85.517" y2="66.567"/>
		
			<line fill="none" stroke="#821BB8" stroke-width="2.1211" stroke-miterlimit="10" x1="68.548" y1="71.346" x2="84.456" y2="71.346"/>
		
			<line fill="none" stroke="#821BB8" stroke-width="2.1211" stroke-miterlimit="10" x1="72.967" y1="76.472" x2="85.517" y2="76.472"/>
		
			<line fill="none" stroke="#821BB8" stroke-width="2.1211" stroke-miterlimit="10" x1="68.548" y1="81.251" x2="84.456" y2="81.251"/>
		
			<line fill="none" stroke="#821BB8" stroke-width="2.1211" stroke-miterlimit="10" x1="72.967" y1="86.377" x2="85.517" y2="86.377"/>
		
			<line fill="none" stroke="#821BB8" stroke-width="2.1211" stroke-miterlimit="10" x1="68.548" y1="91.155" x2="84.456" y2="91.155"/>
		
			<line fill="none" stroke="#821BB8" stroke-width="2.1211" stroke-miterlimit="10" x1="72.967" y1="96.281" x2="85.517" y2="96.281"/>
		
			<line fill="none" stroke="#821BB8" stroke-width="2.1211" stroke-miterlimit="10" x1="68.548" y1="101.06" x2="84.456" y2="101.06"/>
		
			<line fill="none" stroke="#821BB8" stroke-width="2.1211" stroke-miterlimit="10" x1="72.967" y1="106.186" x2="85.517" y2="106.186"/>
		
			<line fill="none" stroke="#821BB8" stroke-width="2.1211" stroke-miterlimit="10" x1="68.548" y1="110.965" x2="84.456" y2="110.965"/>
	</g>
</g>
<g>
	<g>
		<g>
			<rect x="90.58" y="79.319" fill="#FFFFFF" width="37.826" height="99.162"/>
			<path fill="#FC9359" d="M127.346,80.379v97.041H91.641V80.379H127.346 M129.467,78.258H89.519v101.283h39.948V78.258
				L129.467,78.258z"/>
		</g>
		<g>
			<rect x="95.529" y="63.94" fill="#FFFFFF" width="27.751" height="14.494"/>
			<path fill="#FC9359" d="M122.22,65.001v12.373H96.59V65.001H122.22 M124.341,62.88H94.469v16.615h29.872V62.88L124.341,62.88z"/>
		</g>
		<g>
			<rect x="100.479" y="37.604" fill="#FFFFFF" width="18.03" height="25.63"/>
			<path fill="#FC9359" d="M117.448,38.664v23.509h-15.908V38.664H117.448 M119.569,36.543H99.418v27.751h20.151V36.543
				L119.569,36.543z"/>
		</g>
		<g>
			<rect x="103.483" y="33.184" fill="#FFFFFF" width="12.197" height="3.535"/>
			<path fill="#FC9359" d="M114.619,34.245v1.414h-10.075v-1.414H114.619 M116.74,32.124h-14.317v5.656h14.317V32.124L116.74,32.124
				z"/>
		</g>
		<g>
			<rect x="105.074" y="27.351" fill="#FFFFFF" width="8.838" height="5.126"/>
			<path fill="#FC9359" d="M112.852,28.411v3.005h-6.717v-3.005H112.852 M114.973,26.29h-10.959v7.247h10.959V26.29L114.973,26.29z"
				/>
		</g>
	</g>
	<g>
		<rect x="107.019" y="23.639" fill="#FFFFFF" width="4.949" height="2.828"/>
		<path fill="#FC9359" d="M110.907,24.7v0.707h-2.828V24.7H110.907 M113.029,22.579h-7.07v4.949h7.07V22.579L113.029,22.579z"/>
	</g>
	<rect x="107.372" y="0.307" fill="#FC9359" width="4.242" height="23.155"/>
	<g>
		
			<line fill="#FFFFFF" stroke="#FC9359" stroke-width="2.1211" stroke-miterlimit="10" x1="93.349" y1="84.327" x2="124.695" y2="84.327"/>
		
			<line fill="#FFFFFF" stroke="#FC9359" stroke-width="2.1211" stroke-miterlimit="10" x1="99.363" y1="74.776" x2="119.51" y2="74.776"/>
		
			<line fill="#FFFFFF" stroke="#FC9359" stroke-width="2.1211" stroke-miterlimit="10" x1="99.363" y1="70.177" x2="119.51" y2="70.177"/>
		
			<line fill="#FFFFFF" stroke="#FC9359" stroke-width="2.1211" stroke-miterlimit="10" x1="93.349" y1="90.694" x2="124.695" y2="90.694"/>
		
			<line fill="#FFFFFF" stroke="#FC9359" stroke-width="2.1211" stroke-miterlimit="10" x1="93.349" y1="97.415" x2="124.695" y2="97.415"/>
		
			<line fill="#FFFFFF" stroke="#FC9359" stroke-width="2.1211" stroke-miterlimit="10" x1="93.349" y1="104.136" x2="124.695" y2="104.136"/>
		
			<line fill="#FFFFFF" stroke="#FC9359" stroke-width="2.1211" stroke-miterlimit="10" x1="93.349" y1="110.504" x2="124.695" y2="110.504"/>
		
			<line fill="#FFFFFF" stroke="#FC9359" stroke-width="2.1211" stroke-miterlimit="10" x1="93.349" y1="116.871" x2="124.695" y2="116.871"/>
		
			<line fill="#FFFFFF" stroke="#FC9359" stroke-width="2.1211" stroke-miterlimit="10" x1="93.349" y1="123.592" x2="124.695" y2="123.592"/>
		
			<line fill="#FFFFFF" stroke="#FC9359" stroke-width="2.1211" stroke-miterlimit="10" x1="93.349" y1="129.96" x2="124.695" y2="129.96"/>
		
			<line fill="#FFFFFF" stroke="#FC9359" stroke-width="2.1211" stroke-miterlimit="10" x1="93.349" y1="136.327" x2="124.695" y2="136.327"/>
		
			<line fill="#FFFFFF" stroke="#FC9359" stroke-width="2.1211" stroke-miterlimit="10" x1="93.349" y1="142.694" x2="124.695" y2="142.694"/>
		
			<line fill="#FFFFFF" stroke="#FC9359" stroke-width="2.1211" stroke-miterlimit="10" x1="93.349" y1="149.415" x2="124.695" y2="149.415"/>
		
			<line fill="#FFFFFF" stroke="#FC9359" stroke-width="2.1211" stroke-miterlimit="10" x1="93.349" y1="155.783" x2="124.695" y2="155.783"/>
		<rect x="103.248" y="42.022" fill="#FC9359" width="3.064" height="3.771"/>
		<rect x="103.248" y="48.036" fill="#FC9359" width="3.064" height="3.771"/>
		<rect x="103.248" y="54.05" fill="#FC9359" width="3.064" height="3.771"/>
		<rect x="107.847" y="42.022" fill="#FC9359" width="3.064" height="3.771"/>
		<rect x="107.847" y="48.036" fill="#FC9359" width="3.064" height="3.771"/>
		<rect x="107.847" y="54.05" fill="#FC9359" width="3.064" height="3.771"/>
		<rect x="112.799" y="42.022" fill="#FC9359" width="3.064" height="3.771"/>
		<rect x="112.799" y="48.036" fill="#FC9359" width="3.064" height="3.771"/>
		<rect x="112.799" y="54.05" fill="#FC9359" width="3.064" height="3.771"/>
	</g>
</g>
<g>
	<g>
		<rect x="141.398" y="69.199" fill="#FFFFFF" width="6.01" height="34.468"/>
		<path fill="#00B140" d="M146.348,70.26v32.347h-3.889V70.26H146.348 M148.469,68.138h-8.131v36.589h8.131V68.138L148.469,68.138z"
			/>
	</g>
	<g>
		<polygon fill="#FFFFFF" points="139.159,69.111 139.101,61.795 139.16,60.626 136.861,60.626 136.803,53.438 151.945,53.379 
			152.004,60.568 150.938,60.626 149.824,60.626 149.883,61.804 149.883,69.052 149.824,69.111 		"/>
		<path fill="#00B140" d="M150.943,54.44v5.126h-0.006h-2.236l0.117,2.233c0.001,0.016,0.002,0.031,0.003,0.047v6.205h-8.661v-6.196
			l0.003-0.056l0.117-2.233h-2.236h-0.183V54.44H150.943 M151.945,52.319h-15.084c-0.618,0-1.119,0.501-1.119,1.119v7.13
			c0,0.618,0.501,1.119,1.119,1.119h1.185c-0.001,0.02-0.006,0.038-0.006,0.058v7.307c0,0.618,0.501,1.119,1.119,1.119h10.665
			c0.618,0,1.119-0.501,1.119-1.119v-7.307c0-0.02-0.005-0.039-0.006-0.058h1.008c0.618,0,1.119-0.501,1.119-1.119v-7.13
			C153.064,52.82,152.563,52.319,151.945,52.319L151.945,52.319z"/>
	</g>
	<g>
		<polygon fill="#FFFFFF" points="140.648,53.192 140.648,49.644 140.753,48.488 138.925,48.488 138.925,45.416 149.794,45.415 
			149.794,48.488 148.098,48.488 148.204,49.646 148.204,53.192 		"/>
		<path fill="#00B140" d="M148.734,46.475v0.952h-1.749l0.159,2.258v2.446h-5.434v-2.446l0.161-2.259h-1.884v-0.952H148.734
			 M150.016,44.354h-11.312c-0.463,0-0.839,0.278-0.839,0.62v3.953c0,0.343,0.376,0.62,0.839,0.62h0.888
			c-0.001,0.011-0.004,0.021-0.004,0.032v4.051c0,0.343,0.376,0.62,0.839,0.62h7.998c0.463,0,0.839-0.278,0.839-0.62v-4.051
			c0-0.011-0.004-0.021-0.004-0.032h0.756c0.463,0,0.839-0.278,0.839-0.62v-3.953C150.855,44.632,150.479,44.354,150.016,44.354
			L150.016,44.354z"/>
	</g>
</g>
<g>
	<g>
		<rect x="128.352" y="103.902" fill="#FFFFFF" width="5.421" height="74.593"/>
		<path fill="#45968C" d="M132.712,104.963v72.471h-3.299v-72.471H132.712 M134.833,102.842h-7.542v76.713h7.542V102.842
			L134.833,102.842z"/>
	</g>
	<g>
		<rect x="133.89" y="103.902" fill="#FFFFFF" width="39.358" height="74.593"/>
		<path fill="#45968C" d="M172.188,104.963v72.471h-37.237v-72.471H172.188 M174.309,102.842H132.83v76.713h41.479V102.842
			L174.309,102.842z"/>
	</g>
	<g>
		<rect x="138.486" y="106.937" fill="#45968C" width="2.917" height="3.535"/>
		<rect x="143.438" y="106.937" fill="#45968C" width="2.917" height="3.535"/>
		<rect x="157.942" y="106.937" fill="#45968C" width="2.917" height="3.535"/>
		<rect x="163.248" y="106.937" fill="#45968C" width="2.917" height="3.535"/>
		<rect x="138.486" y="112.597" fill="#45968C" width="2.917" height="3.535"/>
		<rect x="138.486" y="118.964" fill="#45968C" width="2.917" height="3.535"/>
		<rect x="138.486" y="124.624" fill="#45968C" width="2.917" height="3.535"/>
		<rect x="143.438" y="124.624" fill="#45968C" width="2.917" height="3.535"/>
		<rect x="143.438" y="130.284" fill="#45968C" width="2.917" height="3.535"/>
		<rect x="138.486" y="144.434" fill="#45968C" width="2.917" height="3.535"/>
		<rect x="138.486" y="150.093" fill="#45968C" width="2.917" height="3.535"/>
		<rect x="143.084" y="156.107" fill="#45968C" width="2.917" height="3.535"/>
		<rect x="138.486" y="168.842" fill="#45968C" width="2.917" height="3.535"/>
		<rect x="148.037" y="112.597" fill="#45968C" width="2.917" height="3.535"/>
		<rect x="157.942" y="112.597" fill="#45968C" width="2.917" height="3.535"/>
		<rect x="163.248" y="112.597" fill="#45968C" width="2.917" height="3.535"/>
	</g>
	<g>
		<rect x="149.166" y="122.831" fill="#FFFFFF" width="4.211" height="54.176"/>
		<path fill="#45968C" d="M152.241,123.967v51.904h-1.94v-51.904H152.241 M154.512,121.696h-6.481v56.445h6.481V121.696
			L154.512,121.696z"/>
	</g>
</g>
<g>
	<g>
		<rect x="151.633" y="163.072" fill="#FFFFFF" width="75.535" height="15.438"/>
		<path fill="#8C8C8C" d="M226.108,164.133v13.316h-73.414v-13.316H226.108 M228.229,162.012h-77.656v17.558h77.656V162.012
			L228.229,162.012z"/>
	</g>
	<g>
		<rect x="153.872" y="128.43" fill="#FFFFFF" width="71.529" height="6.834"/>
		<path fill="#8C8C8C" d="M224.34,129.49v4.714h-69.407v-4.714H224.34 M226.461,127.369h-73.65v8.956h73.65V127.369L226.461,127.369
			z"/>
	</g>
	<g>
		<rect x="155.875" y="123.95" fill="#FFFFFF" width="67.522" height="4.124"/>
		<path fill="#8C8C8C" d="M222.337,125.011v2.003h-65.401v-2.003H222.337 M224.458,122.89h-69.643v6.245h69.643V122.89
			L224.458,122.89z"/>
	</g>
	<g>
		<rect x="160.825" y="108.749" fill="#FFFFFF" width="57.27" height="15.201"/>
		<path fill="#8C8C8C" d="M217.034,109.81v13.08h-55.149v-13.08H217.034 M219.155,107.688h-59.391v17.322h59.391V107.688
			L219.155,107.688z"/>
	</g>
	<g>
		<path fill="#FFFFFF" d="M178.795,123.717c0.047-6.281,4.429-11.374,9.81-11.374s9.763,5.093,9.81,11.374H178.795z"/>
		<path fill="#8C8C8C" d="M188.605,113.403c4.495,0,8.209,4.055,8.695,9.253H179.91C180.396,117.458,184.11,113.403,188.605,113.403
			 M188.605,111.282c-6.004,0-10.871,5.612-10.871,12.536c0,0.323,0.014,0.642,0.035,0.959h21.672
			c0.021-0.317,0.035-0.636,0.035-0.959C199.476,116.895,194.609,111.282,188.605,111.282L188.605,111.282z"/>
	</g>
	<g>
		<path fill="#FFFFFF" d="M204.994,123.717c0.231-2.874,2.277-5.129,4.757-5.129s4.526,2.255,4.757,5.129H204.994z"/>
		<path fill="#8C8C8C" d="M209.751,119.649c1.595,0,2.959,1.253,3.486,3.007h-6.972
			C206.792,120.902,208.156,119.649,209.751,119.649 M209.751,117.528c-3.225,0-5.84,3.015-5.84,6.734
			c0,0.174,0.008,0.345,0.019,0.515h11.642c0.011-0.17,0.019-0.342,0.019-0.515C215.591,120.543,212.976,117.528,209.751,117.528
			L209.751,117.528z"/>
	</g>
	<g>
		<path fill="#FFFFFF" d="M164.313,123.717c0.231-2.874,2.277-5.129,4.757-5.129s4.526,2.255,4.757,5.129H164.313z"/>
		<path fill="#8C8C8C" d="M169.071,119.649c1.595,0,2.959,1.253,3.486,3.007h-6.972
			C166.111,120.902,167.475,119.649,169.071,119.649 M169.071,117.528c-3.225,0-5.84,3.015-5.84,6.734
			c0,0.174,0.008,0.345,0.019,0.515h11.642c0.011-0.17,0.019-0.342,0.019-0.515C174.91,120.543,172.296,117.528,169.071,117.528
			L169.071,117.528z"/>
	</g>
	<g>
		<polygon fill="#FFFFFF" points="174.179,108.476 174.179,89.933 178.816,89.933 178.816,97.521 200.928,97.521 200.928,89.933 
			205.33,89.933 205.33,108.476 		"/>
		<path fill="#8C8C8C" d="M204.231,91.031v16.345h-28.954V91.031h2.44v5.39v2.197h2.197h19.915h2.197v-2.197v-5.39H204.231
			 M206.429,88.834h-6.599v7.588h-19.915v-7.588h-6.835v20.74h33.349V88.834L206.429,88.834z"/>
	</g>
	<g>
		<rect x="155.994" y="135.264" fill="#FFFFFF" width="67.287" height="26.308"/>
		<path fill="#8C8C8C" d="M222.219,136.325v24.186h-65.164v-24.186H222.219 M224.341,134.203h-69.407v28.429h69.407V134.203
			L224.341,134.203z"/>
	</g>
	<path fill="#898D8D" stroke="#8C8C8C" stroke-width="0.3535" stroke-miterlimit="10" d="M162.71,170.556c0-0.002,0-0.003,0-0.005
		v-0.054h-0.003c-0.032-1.958-1.626-3.535-3.591-3.535c-1.985,0-3.594,1.609-3.594,3.594c0,0.025,0.003,0.048,0.004,0.073v7.057
		h7.184v-7.125C162.71,170.559,162.71,170.557,162.71,170.556z"/>
	<path fill="#898D8D" stroke="#8C8C8C" stroke-width="0.3535" stroke-miterlimit="10" d="M191.717,170.556c0-0.002,0-0.003,0-0.005
		v-0.054h-0.003c-0.032-1.958-1.626-3.535-3.591-3.535c-1.985,0-3.594,1.609-3.594,3.594c0,0.025,0.003,0.048,0.004,0.073v7.057
		h7.184v-7.125C191.717,170.559,191.717,170.557,191.717,170.556z"/>
	<path fill="#898D8D" stroke="#8C8C8C" stroke-width="0.3535" stroke-miterlimit="10" d="M222.493,170.556c0-0.002,0-0.003,0-0.005
		v-0.054h-0.003c-0.032-1.958-1.626-3.535-3.591-3.535c-1.985,0-3.594,1.609-3.594,3.594c0,0.025,0.003,0.048,0.004,0.073v7.057
		h7.184v-7.125C222.492,170.559,222.493,170.557,222.493,170.556z"/>
	<path fill="#898D8D" stroke="#8C8C8C" stroke-width="0.3535" stroke-miterlimit="10" d="M197.334,172.713c0-0.001,0-0.002,0-0.003
		v-0.038h-0.001c-0.016-1.365-0.816-2.466-1.802-2.466c-0.996,0-1.804,1.122-1.804,2.507c0,0.017,0.002,0.034,0.002,0.051v4.922
		h3.606v-4.969C197.334,172.715,197.334,172.714,197.334,172.713z"/>
	<path fill="#898D8D" stroke="#8C8C8C" stroke-width="0.3535" stroke-miterlimit="10" d="M202.286,172.713c0-0.001,0-0.002,0-0.003
		v-0.038h-0.001c-0.016-1.365-0.816-2.466-1.802-2.466c-0.996,0-1.804,1.122-1.804,2.507c0,0.017,0.002,0.034,0.002,0.051v4.922
		h3.606v-4.969C202.286,172.715,202.286,172.714,202.286,172.713z"/>
	<path fill="#898D8D" stroke="#8C8C8C" stroke-width="0.3535" stroke-miterlimit="10" d="M206.885,172.713c0-0.001,0-0.002,0-0.003
		v-0.038h-0.001c-0.016-1.365-0.816-2.466-1.802-2.466c-0.996,0-1.804,1.122-1.804,2.507c0,0.017,0.002,0.034,0.002,0.051v4.922
		h3.606v-4.969C206.885,172.715,206.885,172.714,206.885,172.713z"/>
	<path fill="#898D8D" stroke="#8C8C8C" stroke-width="0.3535" stroke-miterlimit="10" d="M201.225,102.672c0-0.001,0-0.002,0-0.003
		v-0.038h-0.001c-0.016-1.365-0.816-2.466-1.802-2.466c-0.996,0-1.804,1.122-1.804,2.507c0,0.017,0.002,0.034,0.002,0.051v4.922
		h3.606v-4.969C201.225,102.674,201.225,102.673,201.225,102.672z"/>
	<path fill="#898D8D" stroke="#8C8C8C" stroke-width="0.3535" stroke-miterlimit="10" d="M196.272,102.672c0-0.001,0-0.002,0-0.003
		v-0.038h-0.001c-0.016-1.365-0.816-2.466-1.802-2.466c-0.996,0-1.804,1.122-1.804,2.507c0,0.017,0.002,0.034,0.002,0.051v4.922
		h3.606v-4.969C196.272,102.674,196.272,102.673,196.272,102.672z"/>
	<path fill="#898D8D" stroke="#8C8C8C" stroke-width="0.3535" stroke-miterlimit="10" d="M191.32,102.672c0-0.001,0-0.002,0-0.003
		v-0.038h-0.001c-0.016-1.365-0.816-2.466-1.802-2.466c-0.996,0-1.804,1.122-1.804,2.507c0,0.017,0.002,0.034,0.002,0.051v4.922
		h3.606v-4.969C191.32,102.674,191.32,102.673,191.32,102.672z"/>
	<path fill="#898D8D" stroke="#8C8C8C" stroke-width="0.3535" stroke-miterlimit="10" d="M186.368,102.672c0-0.001,0-0.002,0-0.003
		v-0.038h-0.001c-0.016-1.365-0.816-2.466-1.802-2.466c-0.996,0-1.804,1.122-1.804,2.507c0,0.017,0.002,0.034,0.002,0.051v4.922
		h3.606v-4.969C186.368,102.674,186.368,102.673,186.368,102.672z"/>
	<path fill="#898D8D" stroke="#8C8C8C" stroke-width="0.3535" stroke-miterlimit="10" d="M181.415,102.672c0-0.001,0-0.002,0-0.003
		v-0.038h-0.001c-0.016-1.365-0.816-2.466-1.802-2.466c-0.996,0-1.804,1.122-1.804,2.507c0,0.017,0.002,0.034,0.002,0.051v4.922
		h3.606v-4.969C181.415,102.674,181.415,102.673,181.415,102.672z"/>
	<path fill="#898D8D" stroke="#8C8C8C" stroke-width="0.3535" stroke-miterlimit="10" d="M172.926,172.713c0-0.001,0-0.002,0-0.003
		v-0.038h-0.001c-0.016-1.365-0.816-2.466-1.802-2.466c-0.996,0-1.804,1.122-1.804,2.507c0,0.017,0.002,0.034,0.002,0.051v4.922
		h3.606v-4.969C172.926,172.715,172.926,172.714,172.926,172.713z"/>
	<path fill="#898D8D" stroke="#8C8C8C" stroke-width="0.3535" stroke-miterlimit="10" d="M177.878,172.713c0-0.001,0-0.002,0-0.003
		v-0.038h-0.001c-0.016-1.365-0.816-2.466-1.802-2.466c-0.996,0-1.804,1.122-1.804,2.507c0,0.017,0.002,0.034,0.002,0.051v4.922
		h3.606v-4.969C177.878,172.715,177.878,172.714,177.878,172.713z"/>
	<path fill="#898D8D" stroke="#8C8C8C" stroke-width="0.3535" stroke-miterlimit="10" d="M182.477,172.713c0-0.001,0-0.002,0-0.003
		v-0.038h-0.001c-0.016-1.365-0.816-2.466-1.802-2.466c-0.996,0-1.804,1.122-1.804,2.507c0,0.017,0.002,0.034,0.002,0.051v4.922
		h3.606v-4.969C182.477,172.715,182.477,172.714,182.477,172.713z"/>
	
		<rect x="215.915" y="138.857" fill="#898D8D" stroke="#8C8C8C" stroke-width="0.3535" stroke-miterlimit="10" width="3.182" height="3.241"/>
	
		<rect x="215.915" y="143.456" fill="#898D8D" stroke="#8C8C8C" stroke-width="0.3535" stroke-miterlimit="10" width="3.182" height="3.241"/>
	
		<rect x="215.915" y="148.054" fill="#898D8D" stroke="#8C8C8C" stroke-width="0.3535" stroke-miterlimit="10" width="3.182" height="3.241"/>
	
		<rect x="215.915" y="152.653" fill="#898D8D" stroke="#8C8C8C" stroke-width="0.3535" stroke-miterlimit="10" width="3.182" height="3.241"/>
	
		<rect x="211.316" y="138.857" fill="#898D8D" stroke="#8C8C8C" stroke-width="0.3535" stroke-miterlimit="10" width="3.182" height="3.241"/>
	
		<rect x="211.316" y="143.456" fill="#898D8D" stroke="#8C8C8C" stroke-width="0.3535" stroke-miterlimit="10" width="3.182" height="3.241"/>
	
		<rect x="211.316" y="148.054" fill="#898D8D" stroke="#8C8C8C" stroke-width="0.3535" stroke-miterlimit="10" width="3.182" height="3.241"/>
	
		<rect x="211.316" y="152.653" fill="#898D8D" stroke="#8C8C8C" stroke-width="0.3535" stroke-miterlimit="10" width="3.182" height="3.241"/>
	
		<rect x="206.717" y="138.857" fill="#898D8D" stroke="#8C8C8C" stroke-width="0.3535" stroke-miterlimit="10" width="3.182" height="3.241"/>
	
		<rect x="206.717" y="143.456" fill="#898D8D" stroke="#8C8C8C" stroke-width="0.3535" stroke-miterlimit="10" width="3.182" height="3.241"/>
	
		<rect x="206.717" y="148.054" fill="#898D8D" stroke="#8C8C8C" stroke-width="0.3535" stroke-miterlimit="10" width="3.182" height="3.241"/>
	
		<rect x="206.717" y="152.653" fill="#898D8D" stroke="#8C8C8C" stroke-width="0.3535" stroke-miterlimit="10" width="3.182" height="3.241"/>
	
		<rect x="199.996" y="138.857" fill="#898D8D" stroke="#8C8C8C" stroke-width="0.3535" stroke-miterlimit="10" width="3.182" height="3.241"/>
	
		<rect x="199.996" y="143.456" fill="#898D8D" stroke="#8C8C8C" stroke-width="0.3535" stroke-miterlimit="10" width="3.182" height="3.241"/>
	
		<rect x="199.996" y="148.054" fill="#898D8D" stroke="#8C8C8C" stroke-width="0.3535" stroke-miterlimit="10" width="3.182" height="3.241"/>
	
		<rect x="199.996" y="152.653" fill="#898D8D" stroke="#8C8C8C" stroke-width="0.3535" stroke-miterlimit="10" width="3.182" height="3.241"/>
	
		<rect x="195.398" y="138.857" fill="#898D8D" stroke="#8C8C8C" stroke-width="0.3535" stroke-miterlimit="10" width="3.182" height="3.241"/>
	
		<rect x="195.398" y="143.456" fill="#898D8D" stroke="#8C8C8C" stroke-width="0.3535" stroke-miterlimit="10" width="3.182" height="3.241"/>
	
		<rect x="195.398" y="148.054" fill="#898D8D" stroke="#8C8C8C" stroke-width="0.3535" stroke-miterlimit="10" width="3.182" height="3.241"/>
	
		<rect x="195.398" y="152.653" fill="#898D8D" stroke="#8C8C8C" stroke-width="0.3535" stroke-miterlimit="10" width="3.182" height="3.241"/>
	
		<rect x="190.799" y="138.857" fill="#898D8D" stroke="#8C8C8C" stroke-width="0.3535" stroke-miterlimit="10" width="3.182" height="3.241"/>
	
		<rect x="190.799" y="143.456" fill="#898D8D" stroke="#8C8C8C" stroke-width="0.3535" stroke-miterlimit="10" width="3.182" height="3.241"/>
	
		<rect x="190.799" y="148.054" fill="#898D8D" stroke="#8C8C8C" stroke-width="0.3535" stroke-miterlimit="10" width="3.182" height="3.241"/>
	
		<rect x="190.799" y="152.653" fill="#898D8D" stroke="#8C8C8C" stroke-width="0.3535" stroke-miterlimit="10" width="3.182" height="3.241"/>
	
		<rect x="184.078" y="138.857" fill="#898D8D" stroke="#8C8C8C" stroke-width="0.3535" stroke-miterlimit="10" width="3.182" height="3.241"/>
	
		<rect x="184.078" y="143.456" fill="#898D8D" stroke="#8C8C8C" stroke-width="0.3535" stroke-miterlimit="10" width="3.182" height="3.241"/>
	
		<rect x="184.078" y="148.054" fill="#898D8D" stroke="#8C8C8C" stroke-width="0.3535" stroke-miterlimit="10" width="3.182" height="3.241"/>
	
		<rect x="184.078" y="152.653" fill="#898D8D" stroke="#8C8C8C" stroke-width="0.3535" stroke-miterlimit="10" width="3.182" height="3.241"/>
	
		<rect x="179.479" y="138.857" fill="#898D8D" stroke="#8C8C8C" stroke-width="0.3535" stroke-miterlimit="10" width="3.182" height="3.241"/>
	
		<rect x="179.479" y="143.456" fill="#898D8D" stroke="#8C8C8C" stroke-width="0.3535" stroke-miterlimit="10" width="3.182" height="3.241"/>
	
		<rect x="179.479" y="148.054" fill="#898D8D" stroke="#8C8C8C" stroke-width="0.3535" stroke-miterlimit="10" width="3.182" height="3.241"/>
	
		<rect x="179.479" y="152.653" fill="#898D8D" stroke="#8C8C8C" stroke-width="0.3535" stroke-miterlimit="10" width="3.182" height="3.241"/>
	
		<rect x="174.881" y="138.857" fill="#898D8D" stroke="#8C8C8C" stroke-width="0.3535" stroke-miterlimit="10" width="3.182" height="3.241"/>
	
		<rect x="174.881" y="143.456" fill="#898D8D" stroke="#8C8C8C" stroke-width="0.3535" stroke-miterlimit="10" width="3.182" height="3.241"/>
	
		<rect x="174.881" y="148.054" fill="#898D8D" stroke="#8C8C8C" stroke-width="0.3535" stroke-miterlimit="10" width="3.182" height="3.241"/>
	
		<rect x="174.881" y="152.653" fill="#898D8D" stroke="#8C8C8C" stroke-width="0.3535" stroke-miterlimit="10" width="3.182" height="3.241"/>
	
		<rect x="168.16" y="138.857" fill="#898D8D" stroke="#8C8C8C" stroke-width="0.3535" stroke-miterlimit="10" width="3.182" height="3.241"/>
	
		<rect x="168.16" y="143.456" fill="#898D8D" stroke="#8C8C8C" stroke-width="0.3535" stroke-miterlimit="10" width="3.182" height="3.241"/>
	
		<rect x="168.16" y="148.054" fill="#898D8D" stroke="#8C8C8C" stroke-width="0.3535" stroke-miterlimit="10" width="3.182" height="3.241"/>
	
		<rect x="168.16" y="152.653" fill="#898D8D" stroke="#8C8C8C" stroke-width="0.3535" stroke-miterlimit="10" width="3.182" height="3.241"/>
	
		<rect x="163.561" y="138.857" fill="#898D8D" stroke="#8C8C8C" stroke-width="0.3535" stroke-miterlimit="10" width="3.182" height="3.241"/>
	
		<rect x="163.561" y="143.456" fill="#898D8D" stroke="#8C8C8C" stroke-width="0.3535" stroke-miterlimit="10" width="3.182" height="3.241"/>
	
		<rect x="163.561" y="152.653" fill="#898D8D" stroke="#8C8C8C" stroke-width="0.3535" stroke-miterlimit="10" width="3.182" height="3.241"/>
	
		<rect x="158.962" y="138.857" fill="#898D8D" stroke="#8C8C8C" stroke-width="0.3535" stroke-miterlimit="10" width="3.182" height="3.241"/>
	
		<rect x="158.962" y="148.054" fill="#898D8D" stroke="#8C8C8C" stroke-width="0.3535" stroke-miterlimit="10" width="3.182" height="3.241"/>
	
		<rect x="158.962" y="152.653" fill="#898D8D" stroke="#8C8C8C" stroke-width="0.3535" stroke-miterlimit="10" width="3.182" height="3.241"/>
	<path fill="#FFFFFF" stroke="#8C8C8C" stroke-width="2.1211" stroke-miterlimit="10" d="M215.267,108.749h-9.663V96.67
		C205.604,96.67,214.029,97.908,215.267,108.749z"/>
	<path fill="#FFFFFF" stroke="#8C8C8C" stroke-width="2.1211" stroke-miterlimit="10" d="M164.57,108.749h9.663V96.67
		C174.233,96.67,165.807,97.908,164.57,108.749z"/>
	<path fill="#FFFFFF" stroke="#8C8C8C" stroke-width="2.1211" stroke-miterlimit="10" d="M200.89,97.495h-22.095
		c0,0-1.595-17.381,10.752-17.381S200.89,97.495,200.89,97.495z"/>
	<g>
		<rect x="185.689" y="70.215" fill="#FFFFFF" width="7.542" height="8.72"/>
		<path fill="#8C8C8C" d="M192.17,71.276v6.599h-5.421v-6.599H192.17 M194.291,69.155h-9.663v10.841h9.663V69.155L194.291,69.155z"
			/>
	</g>
	
		<line fill="none" stroke="#8C8C8C" stroke-width="2.1211" stroke-miterlimit="10" x1="189.563" y1="60.949" x2="189.563" y2="69.579"/>
	<path fill="#898D8D" stroke="#8C8C8C" stroke-width="0.3535" stroke-miterlimit="10" d="M190.909,60.276
		c0,0.618-0.501,1.119-1.119,1.119h-0.332c-0.618,0-1.119-0.501-1.119-1.119v-0.332c0-0.618,0.501-1.119,1.119-1.119h0.332
		c0.618,0,1.119,0.501,1.119,1.119V60.276z"/>
	<path fill="none" stroke="#8C8C8C" stroke-width="2.1211" stroke-linecap="round" stroke-miterlimit="10" d="M194.459,59.817
		c0,0-4.284,8.293-9.884,0"/>
</g>
<g>
	<g>
		<rect x="28.803" y="138.888" fill="#FFFFFF" width="48.079" height="7.865"/>
		<path fill="#45968C" d="M75.821,139.948v5.745H29.863v-5.745H75.821 M77.942,137.827h-50.2v9.987h50.2V137.827L77.942,137.827z"/>
	</g>
	<g>
		<rect x="8.481" y="173.139" fill="#FFFFFF" width="88.456" height="5.557"/>
		<path fill="#45968C" d="M95.96,174.117v3.601H9.459v-3.601H95.96 M97.916,172.161H7.503v7.512h90.412V172.161L97.916,172.161z"/>
	</g>
	<g>
		<rect x="13.645" y="164.421" fill="#FFFFFF" width="78.399" height="8.491"/>
		<path fill="#45968C" d="M90.943,165.523v6.288H14.747v-6.288H90.943 M93.146,163.32H12.544v10.694h80.602V163.32L93.146,163.32z"
			/>
	</g>
	<g>
		<rect x="18.522" y="155.859" fill="#FFFFFF" width="68.292" height="8.635"/>
		<path fill="#45968C" d="M85.785,156.888v6.578H19.551v-6.578H85.785 M87.843,154.83h-70.35v10.694h70.35V154.83L87.843,154.83z"/>
	</g>
	<g>
		<rect x="23.399" y="146.94" fill="#FFFFFF" width="58.543" height="8.786"/>
		<path fill="#45968C" d="M80.989,147.894v6.878H24.353v-6.878H80.989 M82.897,145.986H22.445v10.694h60.452V145.986L82.897,145.986
			z"/>
	</g>
	<g>
		<rect x="35.49" y="117.219" fill="#FFFFFF" width="34.527" height="7.188"/>
		<path fill="#45968C" d="M68.957,118.279v5.067H36.551v-5.067H68.957 M71.078,116.158H34.43v9.309h36.648V116.158L71.078,116.158z"
			/>
	</g>
	<g>
		<rect x="37.494" y="124.524" fill="#FFFFFF" width="30.402" height="13.787"/>
		<path fill="#45968C" d="M66.836,125.585v11.666H38.554v-11.666H66.836 M68.957,123.464H36.433v15.908h32.524V123.464
			L68.957,123.464z"/>
	</g>
	<g>
		
			<line fill="none" stroke="#45968C" stroke-width="2.1211" stroke-miterlimit="10" x1="40.322" y1="139.254" x2="20.171" y2="179.202"/>
		
			<line fill="none" stroke="#45968C" stroke-width="2.1211" stroke-miterlimit="10" x1="85.348" y1="178.257" x2="65.197" y2="138.31"/>
		<g>
			<rect x="41.5" y="128.649" fill="#45968C" width="6.717" height="8.956"/>
			<rect x="57.065" y="128.649" fill="#45968C" width="6.717" height="8.956"/>
			<polygon fill="#45968C" points="37.022,164.147 36.971,164.086 30.275,172.089 37.022,172.089 			"/>
			<polygon fill="#45968C" points="32.424,171.576 32.372,171.514 25.676,179.518 32.424,179.518 			"/>
			<polygon fill="#45968C" points="73.431,171.576 73.482,171.514 80.179,179.518 73.431,179.518 			"/>
			<polygon fill="#45968C" points="40.913,155.657 40.862,155.596 34.166,163.599 40.913,163.599 			"/>
			<polygon fill="#45968C" points="45.158,147.168 45.107,147.106 38.411,155.109 45.158,155.109 			"/>
			<polygon fill="#45968C" points="49.757,138.324 49.706,138.263 43.009,146.266 49.757,146.266 			"/>
			<polygon fill="#45968C" points="68.832,164.147 68.884,164.086 75.58,172.089 68.832,172.089 			"/>
			<polygon fill="#45968C" points="64.941,155.657 64.992,155.596 71.689,163.599 64.941,163.599 			"/>
			<polygon fill="#45968C" points="60.696,147.168 60.748,147.106 67.444,155.109 60.696,155.109 			"/>
			<polygon fill="#45968C" points="56.098,138.324 56.149,138.263 62.845,146.266 56.098,146.266 			"/>
		</g>
	</g>
</g>
<g>
	<path fill="#898D8D" d="M698.938,83.19l1.556-1.864c1.078,0.889,2.207,1.453,3.575,1.453c1.078,0,1.729-0.427,1.729-1.129v-0.034
		c0-0.667-0.411-1.01-2.412-1.523c-2.412-0.615-3.97-1.282-3.97-3.662v-0.034c0-2.173,1.745-3.61,4.193-3.61
		c1.745,0,3.233,0.548,4.448,1.523l-1.37,1.985c-1.06-0.737-2.104-1.181-3.114-1.181c-1.008,0-1.54,0.462-1.54,1.042v0.036
		c0,0.786,0.514,1.042,2.584,1.573c2.429,0.634,3.799,1.507,3.799,3.595v0.033c0,2.38-1.814,3.714-4.397,3.714
		C702.205,85.106,700.375,84.473,698.938,83.19"/>
	<polygon fill="#898D8D" points="710.966,72.958 720,72.958 720,75.302 713.584,75.302 713.584,77.732 719.23,77.732 719.23,80.076 
		713.584,80.076 713.584,82.591 720.085,82.591 720.085,84.935 710.966,84.935 	"/>
	<path fill="#898D8D" d="M722.022,78.98v-0.034c0-3.406,2.566-6.193,6.244-6.193c2.259,0,3.611,0.752,4.722,1.848l-1.677,1.933
		c-0.923-0.838-1.864-1.352-3.062-1.352c-2.019,0-3.473,1.677-3.473,3.73v0.034c0,2.053,1.419,3.764,3.473,3.764
		c1.37,0,2.207-0.548,3.148-1.404l1.677,1.695c-1.232,1.318-2.6,2.138-4.911,2.138C724.64,85.139,722.022,82.42,722.022,78.98"/>
	<path fill="#898D8D" d="M740.556,78.776c1.282,0,2.018-0.685,2.018-1.695v-0.034c0-1.129-0.786-1.711-2.071-1.711h-2.616v3.44
		H740.556z M735.251,72.958h5.475c1.522,0,2.703,0.427,3.49,1.215c0.667,0.667,1.026,1.608,1.026,2.737v0.034
		c0,1.934-1.042,3.149-2.566,3.712l2.926,4.278h-3.079l-2.567-3.833h-0.034h-2.036v3.833h-2.636V72.958z"/>
	<polygon fill="#898D8D" points="747.905,72.958 756.939,72.958 756.939,75.302 750.523,75.302 750.523,77.732 756.169,77.732 
		756.169,80.076 750.523,80.076 750.523,82.591 757.024,82.591 757.024,84.935 747.905,84.935 	"/>
	<polygon fill="#898D8D" points="762.396,75.388 758.752,75.388 758.752,72.958 768.675,72.958 768.675,75.388 765.032,75.388 
		765.032,84.934 762.396,84.934 	"/>
	<path fill="#898D8D" d="M776.275,79.921l-1.59-3.883l-1.59,3.883H776.275z M773.504,72.872h2.43l5.131,12.063h-2.753l-1.096-2.686
		h-5.063l-1.096,2.686h-2.686L773.504,72.872z"/>
	<path fill="#898D8D" d="M788.333,78.776c1.282,0,2.018-0.685,2.018-1.695v-0.034c0-1.129-0.786-1.711-2.071-1.711h-2.616v3.44
		H788.333z M783.028,72.958h5.475c1.522,0,2.703,0.427,3.49,1.215c0.667,0.667,1.026,1.608,1.026,2.737v0.034
		c0,1.934-1.042,3.149-2.566,3.712l2.926,4.278H790.3l-2.567-3.833h-0.034h-2.036v3.833h-2.636V72.958z"/>
	<path fill="#898D8D" d="M797.898,68.989l2.241,0.975l-2.19,2.053h-1.983L797.898,68.989z M795.743,72.957h2.636v11.977h-2.636
		V72.957z"/>
	<path fill="#898D8D" d="M808.265,79.921l-1.59-3.883l-1.59,3.883H808.265z M805.493,72.872h2.43l5.131,12.063h-2.753l-1.096-2.686
		h-5.063l-1.096,2.686h-2.686L805.493,72.872z"/>
	<path fill="#898D8D" d="M824.888,82.557c2.156,0,3.611-1.455,3.611-3.577v-0.034c0-2.12-1.455-3.61-3.611-3.61h-2.036v7.221
		H824.888z M820.217,72.958h4.671c3.764,0,6.364,2.584,6.364,5.955v0.033c0,3.371-2.6,5.989-6.364,5.989h-4.671V72.958z"/>
	<polygon fill="#898D8D" points="833.803,72.958 842.838,72.958 842.838,75.302 836.421,75.302 836.421,77.732 842.068,77.732 
		842.068,80.076 836.421,80.076 836.421,82.591 842.922,82.591 842.922,84.935 833.803,84.935 	"/>
	<path fill="#898D8D" d="M706.843,100.26l-1.59-3.883l-1.59,3.883H706.843z M704.072,93.21h2.43l5.131,12.063h-2.753l-1.096-2.686
		h-5.063l-1.096,2.686h-2.686L704.072,93.21z"/>
	<path fill="#898D8D" d="M718.266,102.895c2.156,0,3.611-1.455,3.611-3.577v-0.034c0-2.12-1.455-3.61-3.611-3.61h-2.036v7.221
		H718.266z M713.595,93.296h4.671c3.764,0,6.364,2.584,6.364,5.955v0.033c0,3.371-2.6,5.989-6.364,5.989h-4.671V93.296z"/>
	<polygon fill="#898D8D" points="727.181,93.296 730.021,93.296 733.169,98.361 736.318,93.296 739.158,93.296 739.158,105.273 
		736.54,105.273 736.54,97.454 733.169,102.57 733.102,102.57 729.765,97.506 729.765,105.273 727.181,105.273 	"/>
	<rect x="742.409" y="93.297" fill="#898D8D" width="2.636" height="11.977"/>
	<polygon fill="#898D8D" points="748.251,93.296 750.681,93.296 756.292,100.67 756.292,93.296 758.894,93.296 758.894,105.273 
		756.653,105.273 750.852,97.659 750.852,105.273 748.251,105.273 	"/>
	<rect x="762.135" y="93.297" fill="#898D8D" width="2.636" height="11.977"/>
	<path fill="#898D8D" d="M767.113,103.528l1.556-1.864c1.078,0.889,2.207,1.453,3.575,1.453c1.078,0,1.729-0.427,1.729-1.129v-0.034
		c0-0.667-0.411-1.01-2.412-1.523c-2.412-0.615-3.97-1.282-3.97-3.662v-0.034c0-2.173,1.745-3.61,4.193-3.61
		c1.745,0,3.233,0.548,4.448,1.523l-1.37,1.985c-1.06-0.737-2.104-1.181-3.114-1.181c-1.008,0-1.54,0.462-1.54,1.042v0.036
		c0,0.786,0.514,1.042,2.584,1.573c2.429,0.634,3.799,1.507,3.799,3.595v0.033c0,2.38-1.814,3.714-4.397,3.714
		C770.38,105.444,768.55,104.812,767.113,103.528"/>
	<polygon fill="#898D8D" points="781.802,95.726 778.158,95.726 778.158,93.296 788.081,93.296 788.081,95.726 784.438,95.726 
		784.438,105.273 781.802,105.273 	"/>
	<path fill="#898D8D" d="M795.424,99.114c1.282,0,2.018-0.685,2.018-1.695v-0.034c0-1.129-0.786-1.711-2.071-1.711h-2.616v3.44
		H795.424z M790.118,93.296h5.475c1.522,0,2.703,0.427,3.49,1.215c0.667,0.667,1.026,1.608,1.026,2.737v0.034
		c0,1.934-1.042,3.149-2.566,3.712l2.926,4.278h-3.079l-2.567-3.833h-0.034h-2.036v3.833h-2.636V93.296z"/>
	<path fill="#898D8D" d="M809.895,100.26l-1.59-3.883l-1.59,3.883H809.895z M807.124,93.21h2.43l5.131,12.063h-2.753l-1.096-2.686
		h-5.063l-1.096,2.686h-2.686L807.124,93.21z"/>
	<path fill="#898D8D" d="M815.472,99.319v-0.034c0-3.406,2.566-6.193,6.244-6.193c2.259,0,3.611,0.752,4.722,1.848l-1.677,1.933
		c-0.923-0.838-1.864-1.352-3.062-1.352c-2.019,0-3.473,1.677-3.473,3.73v0.034c0,2.053,1.419,3.764,3.473,3.764
		c1.37,0,2.207-0.548,3.148-1.404l1.677,1.695c-1.232,1.318-2.6,2.138-4.911,2.138C818.09,105.478,815.472,102.759,815.472,99.319"
		/>
	<rect x="828.753" y="93.297" fill="#898D8D" width="2.636" height="11.977"/>
	<path fill="#898D8D" d="M841.362,89.327l2.241,0.975l-2.19,2.053h-1.985L841.362,89.327z M843.962,99.319v-0.034
		c0-2.053-1.506-3.764-3.626-3.764c-2.122,0-3.593,1.677-3.593,3.73v0.034c0,2.053,1.504,3.764,3.626,3.764
		C842.491,103.049,843.962,101.372,843.962,99.319 M833.988,99.319v-0.034c0-3.406,2.686-6.193,6.381-6.193
		c3.697,0,6.348,2.753,6.348,6.159v0.034c0,3.406-2.686,6.193-6.381,6.193C836.639,105.478,833.988,102.724,833.988,99.319"/>
	<polygon fill="#898D8D" points="849.267,93.296 851.697,93.296 857.308,100.67 857.308,93.296 859.909,93.296 859.909,105.273 
		857.668,105.273 851.868,97.659 851.868,105.273 849.267,105.273 	"/>
	<polygon fill="#898D8D" points="872.031,100.755 867.429,93.501 870.51,93.501 873.366,98.309 876.275,93.501 879.268,93.501 
		874.667,100.705 874.667,105.477 872.031,105.477 	"/>
	<polygon fill="#898D8D" points="886.224,93.501 895.343,93.501 895.343,95.896 888.86,95.896 888.86,98.447 894.574,98.447 
		894.574,100.841 888.86,100.841 888.86,105.478 886.224,105.478 	"/>
	<rect x="897.702" y="93.501" fill="#898D8D" width="2.636" height="11.977"/>
	<polygon fill="#898D8D" points="903.547,93.501 905.977,93.501 911.588,100.875 911.588,93.501 914.189,93.501 914.189,105.478 
		911.948,105.478 906.148,97.864 906.148,105.478 903.547,105.478 	"/>
	<path fill="#898D8D" d="M924.046,100.465l-1.59-3.883l-1.59,3.883H924.046z M921.274,93.415h2.43l5.131,12.063h-2.753l-1.096-2.686
		h-5.063l-1.096,2.686h-2.686L921.274,93.415z"/>
	<polygon fill="#898D8D" points="930.798,93.501 933.228,93.501 938.839,100.875 938.839,93.501 941.44,93.501 941.44,105.478 
		939.199,105.478 933.399,97.864 933.399,105.478 930.798,105.478 	"/>
	<polygon fill="#898D8D" points="944.069,103.476 950.656,95.812 944.274,95.812 944.274,93.501 954.044,93.501 954.044,95.504 
		947.456,103.168 954.044,103.168 954.044,105.478 944.069,105.478 	"/>
	<path fill="#898D8D" d="M963.71,100.465l-1.59-3.883l-1.59,3.883H963.71z M960.939,93.415h2.43l5.131,12.063h-2.753l-1.096-2.686
		h-5.063l-1.096,2.686h-2.686L960.939,93.415z"/>
	<path fill="#898D8D" d="M969.736,103.733l1.556-1.864c1.078,0.889,2.207,1.453,3.575,1.453c1.078,0,1.729-0.427,1.729-1.129v-0.034
		c0-0.667-0.411-1.01-2.412-1.523c-2.412-0.615-3.97-1.282-3.97-3.662V96.94c0-2.173,1.745-3.61,4.193-3.61
		c1.745,0,3.233,0.548,4.448,1.523l-1.37,1.985c-1.06-0.737-2.104-1.181-3.114-1.181c-1.008,0-1.54,0.462-1.54,1.042v0.036
		c0,0.786,0.514,1.042,2.584,1.573c2.429,0.634,3.799,1.507,3.799,3.595v0.033c0,2.38-1.814,3.714-4.397,3.714
		C973.003,105.649,971.173,105.017,969.736,103.733"/>
	<rect x="680.279" y="55.103" fill="#898D8D" width="1.007" height="68.234"/>
	<path fill="#00B140" d="M415.728,94.187c0.485,0.737,1.155,1.072,2.098,1.095c1.285,0.031,2.104-1.229,2.104-1.229l21.283-27.268
		c1.757-1.833,3.49-0.351,3.49-0.351c1.683,1.757,0.427,3.365,0.427,3.365l-4.759,6.089l-0.001,0.033
		c-0.408,0.421-0.661,0.995-0.661,1.628c0,0.581,0.213,1.109,0.561,1.519v0.012l4.789,6.068l15.084-19.187l-6.028-7.684
		l-1.114-1.447c-0.978-1.407-3.163-1.733-3.163-1.733h-9.033c-2.394,0-3.7,1.657-3.7,1.657L411.81,89.215L415.728,94.187z"/>
	<path fill="#00B140" d="M414.656,77.546l-6.052-7.76c-1.231-1.983,0.564-3.404,0.564-3.404c2.26-1.318,3.571,0.716,3.571,0.716
		l5.006,6.43l5.927-7.634l-6.832-8.79c-1.632-2.335-4.117-2.009-4.117-2.009h-8.162c-2.612,0-3.735,1.625-3.735,1.625l-7.215,9.158
		l15.084,19.269L414.656,77.546z"/>
	<path fill="#00B140" d="M437.979,84.161c0,0-0.697-1.078-2.037-1.057c-1.397,0.021-1.961,0.95-1.961,0.95l-21.501,27.612
		c-1.741,1.915-3.615,0.375-3.615,0.375c-1.683-1.759-0.302-3.389-0.302-3.389l4.822-6.193l0.002-0.033
		c0.408-0.421,0.66-0.995,0.66-1.628c0-0.579-0.211-1.109-0.561-1.519l0.002-0.01l-4.789-6.07l-15.135,19.404l8.439,10.68
		l13.259,0.034l26.669-34.107L437.979,84.161z"/>
	<path fill="#00B140" d="M439.091,100.8l6.102,7.852c1.406,1.949-0.368,3.389-0.368,3.389c-2.344,1.574-3.776-0.777-3.776-0.777
		l-5.106-6.486l-5.927,7.635l8.547,10.94l13.159-0.034l8.437-10.815l-15.117-19.312L439.091,100.8z"/>
	<path fill="#00B140" d="M460.048,92.495c-1.775,0-3.218-1.456-3.218-3.248s1.443-3.248,3.218-3.248
		c1.775,0,3.218,1.456,3.218,3.248S461.823,92.495,460.048,92.495 M460.048,83.207c-3.374,0-6.119,2.709-6.119,6.04
		c0,3.33,2.744,6.04,6.119,6.04c3.374,0,6.12-2.71,6.12-6.04C466.168,85.916,463.423,83.207,460.048,83.207"/>
	<path fill="#00B140" d="M426.841,45.819c1.775,0,3.218,1.456,3.218,3.248c0,1.79-1.443,3.248-3.218,3.248
		c-1.773,0-3.218-1.458-3.218-3.248C423.623,47.275,425.067,45.819,426.841,45.819 M426.841,55.107c3.374,0,6.12-2.71,6.12-6.04
		s-2.746-6.04-6.12-6.04c-3.374,0-6.119,2.71-6.119,6.04S423.467,55.107,426.841,55.107"/>
	<path fill="#00B140" d="M390.327,89.224c0-1.791,1.444-3.248,3.219-3.248c1.773,0,3.218,1.456,3.218,3.248
		c0,1.791-1.444,3.248-3.218,3.248C391.772,92.471,390.327,91.015,390.327,89.224 M399.665,89.224c0-3.33-2.746-6.04-6.119-6.04
		c-3.374,0-6.12,2.71-6.12,6.04c0,3.33,2.746,6.04,6.12,6.04C396.919,95.263,399.665,92.553,399.665,89.224"/>
	<path fill="#00B140" d="M426.85,132.641c-1.775,0-3.218-1.456-3.218-3.248c0-1.79,1.443-3.248,3.218-3.248
		c1.773,0,3.218,1.458,3.218,3.248C430.068,131.184,428.623,132.641,426.85,132.641 M426.85,123.353c-3.374,0-6.12,2.71-6.12,6.04
		c0,3.33,2.746,6.04,6.12,6.04c3.374,0,6.119-2.71,6.119-6.04C432.968,126.063,430.224,123.353,426.85,123.353"/>
	<path fill="#898D8D" d="M362.976,49.03h-70.299v46.879c0,25.73,35.133,33.483,35.133,33.483h0.033c0,0,35.133-7.754,35.133-33.483
		V49.03z M361.265,50.741v45.168c0,5.472-1.721,10.525-5.116,15.017c-2.765,3.66-6.646,6.978-11.534,9.855
		c-7.483,4.408-15.086,6.436-16.789,6.857c-1.696-0.418-9.237-2.426-16.715-6.816c-4.907-2.878-8.802-6.196-11.581-9.862
		c-3.411-4.502-5.142-9.564-5.142-15.052V50.741H361.265z"/>
	<path fill="#898D8D" d="M336.34,64.034V59.73h-4.429v4.019h-1.729V59.73h-4.561v4.019h-1.73V59.73h-4.5v4.308l2.196,3.775
		c0.076,0.133,0.116,0.283,0.116,0.435l0.018,19.714h2.129l-0.022-7.081c0-1.671,1.9-3.188,3.986-3.188
		c2.088,0,3.986,1.517,3.986,3.187l0.022,7.082h2.184l-0.007-7.475c-0.003-0.034-0.006-0.069-0.006-0.104v-3.706
		c0-0.019,0.001-0.039,0.003-0.057l-0.001-2.697c-0.001-0.006-0.001-0.009-0.001-0.015v-1.178l-0.004-4.481
		c0-0.155,0.042-0.307,0.121-0.441L336.34,64.034z"/>
	<path fill="#898D8D" d="M319.993,88.421l-0.006-6.533L319.2,82.36c-0.29,0.174-0.654,0.164-0.932-0.027l-0.95-0.649
		c0.003,0.027,0.004,0.055,0.003,0.083l-0.033,2.517c-0.003,0.265-0.128,0.509-0.331,0.669c0.098,0.033,0.191,0.082,0.274,0.149
		c1.151,0.922,1.236,2.243,0.989,3.319H319.993z"/>
	<path fill="#898D8D" d="M327.816,79.421c-1.327,0-2.257,0.946-2.257,1.458l0.022,7.082h4.513l-0.021-7.081
		C330.073,80.367,329.143,79.421,327.816,79.421"/>
	<path fill="#898D8D" d="M301.463,88.421c-0.246-0.545-0.43-1.208-0.554-1.986c-0.217-1.364-0.173-2.619-0.171-2.673
		c0.013-0.366,0.258-0.685,0.609-0.794l1.89-0.584l-2.134-1.51c-0.229-0.162-0.365-0.426-0.365-0.706v-2.394
		c0-0.323,0.179-0.618,0.465-0.768l0.834-0.433v-0.815l-0.759-0.307c-0.326-0.133-0.539-0.45-0.541-0.801l-0.003-2.88
		c0-0.475,0.383-0.861,0.856-0.865l2.668-0.025c-0.048-0.706-0.061-1.671,0.11-2.47c0.232-1.081,0.846-2.253,1.139-2.776
		l-0.141-0.999c-0.036-0.249,0.039-0.499,0.203-0.688c0.165-0.189,0.404-0.298,0.654-0.298h1.438c0.164,0,0.325,0.046,0.463,0.134
		l3.516,2.229h1.617c0.235,0,0.462,0.097,0.624,0.266c0.164,0.171,0.25,0.401,0.24,0.636l-0.122,2.771
		c-0.01,0.234-0.115,0.448-0.281,0.6l1.075,0.003c0.234,0.001,0.459,0.097,0.621,0.265l0.49,0.509l0.372-0.284l0.624-1.315
		c0.143-0.302,0.448-0.494,0.782-0.494h2.295v-0.488l-2.196-3.775c-0.077-0.133-0.118-0.281-0.118-0.435v-5.405
		c0-0.478,0.387-0.865,0.865-0.865h5.365h1.729h4.561h1.73h5.292c0.478,0,0.865,0.387,0.865,0.865v5.405
		c0,0.155-0.042,0.307-0.121,0.441l-2.229,3.772l0.001,0.485h2.275c0.334,0,0.637,0.192,0.78,0.494l0.625,1.315l0.371,0.284
		l0.491-0.509c0.162-0.168,0.386-0.264,0.619-0.265l1.075-0.003c-0.165-0.152-0.27-0.366-0.28-0.6l-0.122-2.771
		c-0.01-0.235,0.076-0.465,0.238-0.636c0.164-0.17,0.389-0.266,0.625-0.266h1.617l3.516-2.229c0.138-0.088,0.299-0.134,0.462-0.134
		h1.44c0.25,0,0.488,0.109,0.652,0.298c0.165,0.189,0.238,0.439,0.203,0.688l-0.141,0.999c0.295,0.523,0.908,1.695,1.139,2.776
		c0.173,0.8,0.158,1.765,0.11,2.47l2.668,0.025c0.475,0.004,0.858,0.39,0.858,0.865l-0.004,2.88c0,0.351-0.213,0.669-0.539,0.801
		l-0.759,0.307v0.815l0.832,0.433c0.286,0.15,0.466,0.445,0.466,0.768v2.394c0,0.28-0.135,0.544-0.365,0.706l-2.135,1.51
		l1.891,0.584c0.35,0.109,0.594,0.427,0.608,0.794c0.003,0.054,0.046,1.309-0.17,2.673c-0.124,0.779-0.31,1.441-0.554,1.986h3.145
		c0.013,0,0.027,0.003,0.04,0.005V55.012h-59.067v33.409H301.463z"/>
	<path fill="#898D8D" d="M338.446,85.101c0.082-0.065,0.176-0.116,0.274-0.147c-0.204-0.159-0.328-0.405-0.332-0.67l-0.033-2.517
		c0-0.028,0-0.055,0.003-0.083l-0.949,0.649c-0.278,0.191-0.643,0.201-0.934,0.028l-0.745-0.447l0.006,6.506h1.718
		C337.21,87.345,337.295,86.024,338.446,85.101"/>
	<path fill="#898D8D" d="M349.928,106.288c-0.478,0-0.865-0.387-0.865-0.865v-5.65c0-0.42-0.253-0.94-0.645-1.327
		c-0.329-0.323-0.899-0.71-1.776-0.691c-1.325,0.021-2.12,1.047-2.232,2.061v5.606c0,0.231-0.091,0.45-0.252,0.612
		c-0.162,0.162-0.383,0.253-0.612,0.253h-5.139c-0.478,0-0.864-0.387-0.864-0.865v-5.65c0-0.42-0.255-0.94-0.646-1.327
		c-0.329-0.323-0.902-0.71-1.775-0.691c-0.579,0.009-1.099,0.219-1.501,0.594l4.225,21.547c5.946-2.636,12.986-6.935,16.786-13.609
		H349.928z"/>
	<path fill="#898D8D" d="M336.189,120.433l-5.938-30.282h-4.82l-5.931,30.294c-0.009,0.042-0.021,0.08-0.036,0.121
		c4.123,1.692,7.469,2.552,8.403,2.846c0.947-0.298,4.272-1.153,8.366-2.828C336.214,120.534,336.199,120.485,336.189,120.433"/>
	<path fill="#898D8D" d="M322.068,98.322c-0.399-0.356-0.907-0.555-1.468-0.564c-0.015,0-0.031,0-0.046,0
		c-0.846,0-1.406,0.375-1.729,0.692c-0.392,0.386-0.645,0.905-0.645,1.327v5.65c0,0.478-0.387,0.865-0.865,0.865h-5.139
		c-0.229,0-0.45-0.091-0.611-0.253c-0.162-0.162-0.255-0.383-0.255-0.612v-5.608c-0.11-1.014-0.905-2.04-2.231-2.061
		c-0.016,0-0.031,0-0.048,0c-0.846,0-1.406,0.375-1.729,0.692c-0.392,0.386-0.645,0.905-0.645,1.327v5.65
		c0,0.478-0.387,0.865-0.865,0.865h-4.688c3.794,6.652,10.809,10.946,16.742,13.585L322.068,98.322z"/>
	<path fill="#898D8D" d="M357.359,90.151h-25.347l1.245,6.349c0.555-0.298,1.182-0.465,1.838-0.475
		c1.138-0.021,2.217,0.404,3.015,1.19c0.728,0.715,1.161,1.672,1.161,2.558v4.786h3.41v-4.786c0-0.027,0.001-0.054,0.003-0.08
		c0.191-2.058,1.881-3.635,3.93-3.668c1.153-0.021,2.219,0.404,3.017,1.19c0.728,0.715,1.161,1.672,1.161,2.558v4.786h4.723
		c1.182-2.594,1.884-5.513,1.884-8.796v-5.617C357.386,90.148,357.373,90.151,357.359,90.151"/>
	<path fill="#898D8D" d="M304.93,104.561v-4.784c0-0.888,0.435-1.844,1.161-2.56c0.798-0.785,1.872-1.203,3.017-1.188
		c2.049,0.033,3.739,1.61,3.93,3.668c0.003,0.027,0.004,0.054,0.004,0.08v4.784h3.409v-4.784c0-0.888,0.433-1.844,1.161-2.56
		c0.798-0.785,1.873-1.203,3.017-1.188c0.639,0.009,1.252,0.17,1.799,0.456l1.24-6.333h-25.335v5.611
		c0,3.285,0.703,6.205,1.888,8.799H304.93z"/>
	<path fill="#898D8D" d="M306.962,86.64h1.403c0.107,0.174,0.168,0.374,0.197,0.581c0.004,0.116,0.012,0.234,0.022,0.35
		c-0.003,0.305-0.057,0.605-0.118,0.85h-4.911c-0.709-0.484-1.063-2.405-1.093-3.986l2.149-0.666
		c0.362-0.112,0.609-0.447,0.609-0.825v-0.829c0-0.28-0.135-0.544-0.365-0.704l-2.387-1.69v-1.422l0.832-0.435
		c0.286-0.149,0.465-0.444,0.465-0.767v-1.922c0-0.351-0.213-0.669-0.539-0.801l-0.759-0.307l-0.001-1.44l2.266-0.021l1.077,1.765
		l0.007,2.461l-0.74,2.335c-0.083,0.264-0.036,0.549,0.127,0.773c0.162,0.222,0.423,0.353,0.698,0.353h0.654
		c0.424,0,0.785-0.307,0.853-0.725c0.063-0.383,0.268-1.486,0.462-1.985c0.149-0.386,0.765-1.214,1.154-1.678
		c0.272-0.328,0.268-0.804-0.01-1.124l-2.974-3.413c-0.058-0.514-0.164-1.732,0.021-2.596c0.201-0.937,0.852-2.129,1.084-2.511
		c0.106-0.171,0.147-0.374,0.119-0.573l-0.045-0.31h0.192l3.516,2.229c0.138,0.088,0.299,0.134,0.463,0.134h0.963l-0.057,1.291
		l-1.133,0.411c-0.344,0.125-0.572,0.453-0.57,0.817l0.006,0.889c0.003,0.475,0.389,0.858,0.862,0.859l2.96,0.009l0.773,0.801
		c0.305,0.317,0.8,0.354,1.148,0.086c0,0,1.346-1.071,1.406-1.196l0.479-1.011h1.726v2.033v1.115c0,0-3.155,1.081-3.417,1.211
		c-0.206,0.103-0.319,1.08-0.283,1.315c0.036,0.235,0.024,0.329,0.363,0.581c0,0,0.919,0.722,1.2,0.824l0.917-0.877l1.215,0.082
		l-0.001,2.916l-1.16,0.695l-3.627-2.482c-0.377-0.258-0.889-0.179-1.17,0.182l-0.567,0.727c-0.275,0.353-0.237,0.858,0.089,1.164
		l2.076,1.943l-0.021,1.581l-2.082,0.925c-0.311,0.14-0.514,0.45-0.514,0.791v0.353c0,0.478,0.387,0.865,0.865,0.865h2.505
		c0.432,0.538,0.262,1.297,0.08,1.781h-5.772c-0.197-0.205-0.298-0.569-0.34-0.975c-0.001-0.11-0.009-0.222-0.019-0.335
		c-0.015-0.548,0.055-1.115,0.13-1.44l1.343-1.72c0.11-0.141,0.174-0.313,0.182-0.491l0.04-0.825
		c0.015-0.295-0.124-0.578-0.365-0.748c-0.241-0.171-0.552-0.207-0.826-0.094l-2.167,0.885c-0.283,0.116-0.484,0.372-0.529,0.675
		l-0.128,0.865l-1.258,0.38c-0.365,0.11-0.615,0.447-0.615,0.828v0.35C306.097,86.253,306.484,86.64,306.962,86.64"/>
	<path fill="#898D8D" d="M348.715,86.64h-1.403c-0.107,0.174-0.168,0.374-0.198,0.581c-0.003,0.116-0.01,0.234-0.021,0.35
		c0.003,0.305,0.057,0.605,0.118,0.85h4.911c0.709-0.484,1.062-2.405,1.093-3.986l-2.149-0.666
		c-0.363-0.112-0.611-0.447-0.611-0.825v-0.829c0-0.28,0.137-0.544,0.366-0.704l2.387-1.69v-1.422l-0.832-0.435
		c-0.286-0.149-0.466-0.444-0.466-0.767v-1.922c0-0.351,0.214-0.669,0.541-0.801l0.759-0.307l0.001-1.44l-2.266-0.021l-1.077,1.765
		l-0.007,2.461l0.74,2.335c0.083,0.264,0.036,0.549-0.127,0.773c-0.164,0.222-0.423,0.353-0.698,0.353h-0.654
		c-0.424,0-0.785-0.307-0.853-0.725c-0.064-0.383-0.268-1.486-0.462-1.985c-0.149-0.386-0.765-1.214-1.154-1.678
		c-0.272-0.328-0.268-0.804,0.01-1.124l2.974-3.413c0.058-0.514,0.164-1.732-0.021-2.596c-0.201-0.937-0.852-2.129-1.084-2.511
		c-0.106-0.171-0.147-0.374-0.119-0.573l0.043-0.31h-0.191l-3.516,2.229c-0.138,0.088-0.299,0.134-0.463,0.134h-0.965l0.058,1.291
		l1.133,0.411c0.344,0.125,0.572,0.453,0.57,0.817l-0.006,0.889c-0.003,0.475-0.389,0.858-0.862,0.859l-2.96,0.009l-0.773,0.801
		c-0.305,0.317-0.8,0.354-1.148,0.086c0,0-1.346-1.071-1.406-1.196l-0.479-1.011h-1.726v2.033v1.115c0,0,3.155,1.081,3.416,1.211
		c0.207,0.103,0.32,1.08,0.284,1.315c-0.036,0.235-0.024,0.329-0.363,0.581c0,0-0.92,0.722-1.2,0.824l-0.917-0.877l-1.215,0.082
		l0.001,2.916l1.16,0.695l3.627-2.482c0.377-0.258,0.889-0.179,1.169,0.182l0.569,0.727c0.275,0.353,0.237,0.858-0.091,1.164
		l-2.074,1.943l0.021,1.581l2.082,0.925c0.311,0.14,0.514,0.45,0.514,0.791v0.353c0,0.478-0.387,0.865-0.865,0.865h-2.505
		c-0.432,0.538-0.262,1.297-0.08,1.781h5.772c0.197-0.205,0.298-0.569,0.338-0.975c0.003-0.11,0.01-0.222,0.021-0.335
		c0.015-0.548-0.055-1.115-0.13-1.44l-1.343-1.72c-0.11-0.141-0.174-0.313-0.183-0.491l-0.039-0.825
		c-0.015-0.295,0.122-0.578,0.365-0.748c0.241-0.171,0.552-0.207,0.826-0.094l2.167,0.885c0.283,0.116,0.484,0.372,0.529,0.675
		l0.128,0.865l1.258,0.38c0.365,0.11,0.615,0.447,0.615,0.828v0.35C349.58,86.253,349.193,86.64,348.715,86.64"/>
	<path fill="#898D8D" d="M484.674,78.975v-0.033c0-3.286,2.412-6.196,6.007-6.196c2.019,0,3.268,0.582,4.466,1.592l-0.873,1.027
		c-0.925-0.804-1.951-1.37-3.644-1.37c-2.654,0-4.552,2.243-4.552,4.912v0.034c0,2.858,1.83,4.978,4.738,4.978
		c1.37,0,2.636-0.53,3.458-1.197v-2.977h-3.644V78.53h4.945v4.775c-1.114,0.993-2.79,1.832-4.81,1.832
		C487.001,85.137,484.674,82.399,484.674,78.975"/>
	<path fill="#898D8D" d="M510.819,78.975v-0.033c0-2.721-1.986-4.947-4.723-4.947c-2.738,0-4.689,2.19-4.689,4.912v0.034
		c0,2.721,1.983,4.945,4.722,4.945S510.819,81.697,510.819,78.975 M500.002,78.975v-0.033c0-3.303,2.482-6.196,6.126-6.196
		c3.645,0,6.093,2.858,6.093,6.162v0.034c0,3.303-2.482,6.195-6.126,6.195C502.45,85.137,500.002,82.278,500.002,78.975"/>
	<path fill="#898D8D" d="M522.179,79.491h-3.782v4.226h4.022c1.814,0,2.942-0.806,2.942-2.14v-0.034
		C525.361,80.243,524.267,79.491,522.179,79.491 M524.694,76.118c0-1.181-0.941-1.951-2.652-1.951h-3.645v4.125h3.543
		c1.626,0,2.755-0.737,2.755-2.14V76.118z M517.063,72.952h5.099c1.368,0,2.448,0.395,3.132,1.062
		c0.497,0.514,0.77,1.145,0.77,1.916v0.034c0,1.558-0.957,2.36-1.899,2.773c1.421,0.427,2.566,1.248,2.566,2.892v0.034
		c0,2.053-1.727,3.267-4.345,3.267h-5.322V72.952z"/>
	<rect x="531.564" y="72.953" fill="#898D8D" width="1.352" height="11.978"/>
	<polygon fill="#898D8D" points="538.388,72.952 547.046,72.952 547.046,74.185 539.739,74.185 539.739,78.274 546.277,78.274 
		546.277,79.507 539.739,79.507 539.739,83.699 547.132,83.699 547.132,84.93 538.388,84.93 	"/>
	<path fill="#898D8D" d="M556.647,79.062c1.796,0,3.079-0.925,3.079-2.464v-0.034c0-1.471-1.129-2.362-3.063-2.362h-3.696v4.86
		H556.647z M551.617,72.952h5.149c1.473,0,2.654,0.445,3.406,1.197c0.582,0.582,0.925,1.421,0.925,2.363v0.034
		c0,1.984-1.37,3.148-3.251,3.49l3.678,4.893h-1.66l-3.473-4.655h-3.423v4.655h-1.351V72.952z"/>
	<polygon fill="#898D8D" points="565.969,72.952 567.235,72.952 574.781,82.552 574.781,72.952 576.099,72.952 576.099,84.93 
		575.021,84.93 567.285,75.11 567.285,84.93 565.969,84.93 	"/>
	<path fill="#898D8D" d="M591.753,78.975v-0.033c0-2.721-1.986-4.947-4.723-4.947c-2.738,0-4.689,2.19-4.689,4.912v0.034
		c0,2.721,1.983,4.945,4.722,4.945S591.753,81.697,591.753,78.975 M580.937,78.975v-0.033c0-3.303,2.482-6.196,6.126-6.196
		c3.645,0,6.093,2.858,6.093,6.162v0.034c0,3.303-2.482,6.195-6.126,6.195C583.385,85.137,580.937,82.278,580.937,78.975"/>
	<path fill="#898D8D" d="M605.579,74.202v9.479h2.807c3.029,0,4.963-2.052,4.963-4.705v-0.034c0-2.652-1.934-4.74-4.963-4.74
		H605.579z M604.228,72.952h4.158c3.764,0,6.366,2.585,6.366,5.956v0.033c0,3.373-2.601,5.989-6.366,5.989h-4.158V72.952z"/>
	<polygon fill="#898D8D" points="619.047,72.952 627.705,72.952 627.705,74.185 620.398,74.185 620.398,78.274 626.935,78.274 
		626.935,79.507 620.398,79.507 620.398,83.699 627.791,83.699 627.791,84.93 619.047,84.93 	"/>
	<polygon fill="#898D8D" points="638.556,72.952 639.907,72.952 639.907,83.681 646.651,83.681 646.651,84.93 638.556,84.93 	"/>
	<path fill="#898D8D" d="M658.286,80.533l-2.722-6.09l-2.737,6.09H658.286z M654.949,72.867h1.266l5.461,12.065h-1.455l-1.404-3.166
		h-6.519l-1.421,3.166h-1.386L654.949,72.867z"/>
	<path fill="#898D8D" d="M484.418,99.512v-0.033c0-3.406,2.566-6.196,6.245-6.196c2.259,0,3.611,0.754,4.723,1.848l-1.677,1.934
		c-0.925-0.84-1.866-1.352-3.063-1.352c-2.021,0-3.474,1.678-3.474,3.732v0.034c0,2.052,1.421,3.763,3.474,3.763
		c1.368,0,2.208-0.547,3.148-1.403l1.677,1.695c-1.231,1.318-2.6,2.138-4.911,2.138C487.035,105.672,484.418,102.952,484.418,99.512
		"/>
	<rect x="497.646" y="93.489" fill="#898D8D" width="2.636" height="11.978"/>
	<path fill="#898D8D" d="M503.322,100.334v-6.845h2.636v6.777c0,1.951,0.975,2.959,2.584,2.959c1.608,0,2.584-0.974,2.584-2.872
		v-6.863h2.636v6.759c0,3.629-2.037,5.407-5.255,5.407C505.291,105.655,503.322,103.859,503.322,100.334"/>
	<path fill="#898D8D" d="M521.429,103.089c2.156,0,3.611-1.455,3.611-3.577v-0.034c0-2.122-1.455-3.61-3.611-3.61h-2.036v7.221
		H521.429z M516.758,93.489h4.671c3.764,0,6.366,2.585,6.366,5.956v0.033c0,3.371-2.601,5.989-6.366,5.989h-4.671V93.489z"/>
	<path fill="#898D8D" d="M536.406,100.454l-1.592-3.885l-1.592,3.885H536.406z M533.633,93.403h2.43l5.133,12.065h-2.755
		l-1.096-2.686h-5.063l-1.096,2.686h-2.688L533.633,93.403z"/>
	<path fill="#898D8D" d="M547.775,103.089c2.158,0,3.611-1.455,3.611-3.577v-0.034c0-2.122-1.453-3.61-3.611-3.61h-2.036v7.221
		H547.775z M543.104,93.489h4.671c3.764,0,6.366,2.585,6.366,5.956v0.033c0,3.371-2.601,5.989-6.366,5.989h-4.671V93.489z"/>
	<path fill="#898D8D" d="M566.462,103.089c2.156,0,3.611-1.455,3.611-3.577v-0.034c0-2.122-1.455-3.61-3.611-3.61h-2.036v7.221
		H566.462z M561.791,93.489h4.671c3.766,0,6.366,2.585,6.366,5.956v0.033c0,3.371-2.6,5.989-6.366,5.989h-4.671V93.489z"/>
	<polygon fill="#898D8D" points="575.329,93.489 584.363,93.489 584.363,95.834 577.947,95.834 577.947,98.264 583.593,98.264 
		583.593,100.607 577.947,100.607 577.947,103.123 584.449,103.123 584.449,105.467 575.329,105.467 	"/>
	<polygon fill="#898D8D" points="592.099,93.489 594.939,93.489 598.088,98.555 601.236,93.489 604.076,93.489 604.076,105.467 
		601.458,105.467 601.458,97.647 598.088,102.764 598.02,102.764 594.683,97.699 594.683,105.467 592.099,105.467 	"/>
	<path fill="#898D8D" d="M612.233,89.519l2.243,0.975l-2.19,2.053h-1.986L612.233,89.519z M607.219,93.489h9.034v2.345h-6.416v2.43
		h5.647v2.342h-5.647v2.517h6.503v2.344h-9.121V93.489z"/>
	<polygon fill="#898D8D" points="622.209,99.376 618.205,93.488 621.284,93.488 623.799,97.373 626.332,93.488 629.328,93.488 
		625.324,99.342 629.498,105.468 626.419,105.468 623.732,101.361 621.028,105.468 618.034,105.468 	"/>
	<rect x="631.519" y="93.489" fill="#898D8D" width="2.636" height="11.978"/>
	<path fill="#898D8D" d="M636.703,99.512v-0.033c0-3.406,2.566-6.196,6.247-6.196c2.258,0,3.611,0.754,4.723,1.848l-1.678,1.934
		c-0.925-0.84-1.866-1.352-3.063-1.352c-2.019,0-3.473,1.678-3.473,3.732v0.034c0,2.052,1.419,3.763,3.473,3.763
		c1.368,0,2.208-0.547,3.148-1.403l1.678,1.695c-1.233,1.318-2.601,2.138-4.911,2.138
		C639.321,105.672,636.703,102.952,636.703,99.512"/>
	<path fill="#898D8D" d="M658.978,99.512v-0.033c0-2.055-1.507-3.766-3.627-3.766c-2.123,0-3.593,1.678-3.593,3.732v0.034
		c0,2.052,1.504,3.763,3.626,3.763S658.978,101.567,658.978,99.512 M649.001,99.512v-0.033c0-3.406,2.686-6.196,6.382-6.196
		c3.697,0,6.348,2.755,6.348,6.162v0.034c0,3.406-2.685,6.193-6.381,6.193S649.001,102.918,649.001,99.512"/>
</g>
</svg>
